<svg width="30" height="27" viewBox="0 0 30 27" fill="none" xmlns="http://www.w3.org/2000/svg">
<path id="Vector" d="M29.4507 14.4499C30.1831 13.7175 30.1831 12.528 29.4507 11.7955L21.9503 4.29513C21.2178 3.56267 20.0283 3.56267 19.2959 4.29513C18.5634 5.02759 18.5634 6.2171 19.2959 6.94956L23.5969 11.2505H11.2505C10.2134 11.2505 9.37546 12.0885 9.37546 13.1256C9.37546 14.1628 10.2134 15.0007 11.2505 15.0007H23.5969L19.2959 19.3017C18.5634 20.0342 18.5634 21.2237 19.2959 21.9562C20.0283 22.6886 21.2178 22.6886 21.9503 21.9562L29.4507 14.4558V14.4499ZM9.37546 3.75018C10.4126 3.75018 11.2505 2.91225 11.2505 1.87509C11.2505 0.837932 10.4126 0 9.37546 0H5.62527C2.51965 0 0 2.51965 0 5.62527V20.626C0 23.7316 2.51965 26.2513 5.62527 26.2513H9.37546C10.4126 26.2513 11.2505 25.4134 11.2505 24.3762C11.2505 23.339 10.4126 22.5011 9.37546 22.5011H5.62527C4.58811 22.5011 3.75018 21.6632 3.75018 20.626V5.62527C3.75018 4.58811 4.58811 3.75018 5.62527 3.75018H9.37546Z" fill="#333333" fill-opacity="0.75"/>
</svg>
