<?xml version="1.0" encoding="utf-8"?>
<!-- Generator: Adobe Illustrator 28.2.0, SVG Export Plug-In . SVG Version: 6.00 Build 0)  -->
<svg version="1.1" id="katman_1" xmlns="http://www.w3.org/2000/svg" xmlns:xlink="http://www.w3.org/1999/xlink" x="0px" y="0px"
	 viewBox="0 0 372 330.7" style="enable-background:new 0 0 372 330.7;" xml:space="preserve">
<path d="M371.9,165c0,11.6-9.7,20.7-20.7,20.7h-20.7l0.5,103.5c0,1.7-0.1,3.5-0.3,5.2v10.4c0,14.3-11.6,25.8-25.8,25.8h-10.3
	c-0.7,0-1.4,0-2.1-0.1c-0.9,0.1-1.8,0.1-2.7,0.1h-21h-15.5c-14.3,0-25.8-11.6-25.8-25.8v-15.5V248c0-11.4-9.2-20.7-20.7-20.7h-41.3
	c-11.4,0-20.7,9.2-20.7,20.7v41.3v15.5c0,14.3-11.6,25.8-25.8,25.8h-15.5H82.7c-1,0-1.9-0.1-2.9-0.1c-0.8,0.1-1.6,0.1-2.3,0.1H67.1
	c-14.3,0-25.8-11.6-25.8-25.8v-72.3c0-0.6,0-1.2,0.1-1.8v-45H20.6C9,185.7,0,176.7,0,165c0-5.8,1.9-11,6.5-15.5L172,5.2
	c4.5-4.5,9.7-5.2,14.2-5.2c4.5,0,9.7,1.3,13.6,4.5l165,145C369.9,154,372.5,159.2,371.9,165z"/>
</svg>
