<svg width="31" height="30" viewBox="0 0 31 30" fill="none" xmlns="http://www.w3.org/2000/svg">
<path id="Vector" d="M30.5 5.625C30.5 8.56641 27.0371 12.9551 25.543 14.707C25.3203 14.9648 24.9922 15.0645 24.6934 15H19.25C18.2129 15 17.375 15.8379 17.375 16.875C17.375 17.9121 18.2129 18.75 19.25 18.75H24.875C27.9805 18.75 30.5 21.2695 30.5 24.375C30.5 27.4805 27.9805 30 24.875 30H8.67969C9.18945 29.4199 9.81055 28.6758 10.4375 27.8438C10.8066 27.3516 11.1875 26.8125 11.5508 26.25H24.875C25.9121 26.25 26.75 25.4121 26.75 24.375C26.75 23.3379 25.9121 22.5 24.875 22.5H19.25C16.1445 22.5 13.625 19.9805 13.625 16.875C13.625 13.7695 16.1445 11.25 19.25 11.25H21.582C20.3516 9.4043 19.25 7.2832 19.25 5.625C19.25 2.51953 21.7695 0 24.875 0C27.9805 0 30.5 2.51953 30.5 5.625ZM7.36133 28.6582C7.13867 28.9102 6.93945 29.1328 6.76953 29.3203L6.66406 29.4375L6.65234 29.4258C6.30078 29.6953 5.79688 29.6602 5.48047 29.3203C4.00391 27.7148 0.5 23.584 0.5 20.625C0.5 17.5195 3.01953 15 6.125 15C9.23047 15 11.75 17.5195 11.75 20.625C11.75 22.3828 10.5137 24.5508 9.20117 26.3613C8.57422 27.2227 7.92969 28.002 7.39648 28.6172L7.36133 28.6582ZM8 20.625C8 20.1277 7.80246 19.6508 7.45083 19.2992C7.09919 18.9475 6.62228 18.75 6.125 18.75C5.62772 18.75 5.15081 18.9475 4.79917 19.2992C4.44754 19.6508 4.25 20.1277 4.25 20.625C4.25 21.1223 4.44754 21.5992 4.79917 21.9508C5.15081 22.3025 5.62772 22.5 6.125 22.5C6.62228 22.5 7.09919 22.3025 7.45083 21.9508C7.80246 21.5992 8 21.1223 8 20.625ZM24.875 7.5C25.3723 7.5 25.8492 7.30246 26.2008 6.95083C26.5525 6.59919 26.75 6.12228 26.75 5.625C26.75 5.12772 26.5525 4.65081 26.2008 4.29917C25.8492 3.94754 25.3723 3.75 24.875 3.75C24.3777 3.75 23.9008 3.94754 23.5492 4.29917C23.1975 4.65081 23 5.12772 23 5.625C23 6.12228 23.1975 6.59919 23.5492 6.95083C23.9008 7.30246 24.3777 7.5 24.875 7.5Z" fill="#333333"/>
</svg>
