<svg width="30" height="30" viewBox="0 0 30 30" fill="none" xmlns="http://www.w3.org/2000/svg">
<path id="Vector" d="M25.3125 2.8125H12.1875C11.1504 2.8125 10.3125 3.65039 10.3125 4.6875V5.625H7.5V4.6875C7.5 2.09766 9.59766 0 12.1875 0H25.3125C27.9023 0 30 2.09766 30 4.6875V17.8125C30 20.4023 27.9023 22.5 25.3125 22.5H24.375V19.6875H25.3125C26.3496 19.6875 27.1875 18.8496 27.1875 17.8125V4.6875C27.1875 3.65039 26.3496 2.8125 25.3125 2.8125ZM2.8125 26.25C2.8125 26.7656 3.23438 27.1875 3.75 27.1875H18.75C19.2656 27.1875 19.6875 26.7656 19.6875 26.25V15H2.8125V26.25ZM3.75 7.5H18.75C20.8184 7.5 22.5 9.18164 22.5 11.25V26.25C22.5 28.3184 20.8184 30 18.75 30H3.75C1.68164 30 0 28.3184 0 26.25V11.25C0 9.18164 1.68164 7.5 3.75 7.5Z" fill="#333333" fill-opacity="0.75"/>
</svg>
